PathFileType	4	(X/Y/Z)	D:\luciana\glass.trc
DataRate	CameraRate	NumFrames	NumMarkers	Units	OrigDataRate	OrigDataStartFrame	OrigNumFrames
250.00	250.00	13	19	mm	250.00	503	2010
Frame#	Time	pelvisR			PelvisL			Trunk1			Trunk2			Trunk3			C7			shoulder			upperArm1			upperArm2			upperArm3			elbow			forearm1			forearm2			forearm3			wrist1			wrist2			wrist3			Object			Hand			
		X1	Y1	Z1	X2	Y2	Z2	X3	Y3	Z3	X4	Y4	Z4	X5	Y5	Z5	X6	Y6	Z6	X7	Y7	Z7	X8	Y8	Z8	X9	Y9	Z9	X10	Y10	Z10	X11	Y11	Z11	X12	Y12	Z12	X13	Y13	Z13	X14	Y14	Z14	X15	Y15	Z15	X16	Y16	Z16	X17	Y17	Z17	X18	Y18	Z18	X19	Y19	Z19	

502	2.008000	1734.405637	645.261526	681.117892	1399.773002	648.463249	667.013466	1612.955451	843.406796	938.877761	1642.381907	755.309165	922.746718	1552.002907	791.330695	920.988142	1575.214982	1127.709866	835.944414	1752.848983	1047.637463	786.607862	1868.290186	876.025558	737.814903	1829.975843	855.762482	802.047074	1810.864091	893.891811	688.066006	1842.278242	745.586395	696.727574	1880.253553	695.444703	634.408593	1825.272679	737.457991	605.948448	1843.419194	652.904272	693.027377	1818.245173	661.381721	495.777130	1841.765523	596.185148	536.682248	1747.684836	673.451066	513.208926	1577.227712	767.612517	247.739211	1786.119223	578.251123	435.150534	
503	2.012000	1734.409690	645.267367	681.127727	1399.775267	648.452997	667.006969	1612.939477	843.410313	938.898563	1642.345905	755.297303	922.770262	1551.993251	791.331053	921.009719	1575.155616	1127.718806	835.942686	1752.823234	1047.624707	786.633253	1868.287086	876.028061	737.933815	1829.961896	855.778813	802.151144	1810.879588	893.883288	688.160539	1842.326522	745.572031	696.876824	1880.309224	695.432067	634.556055	1825.369477	737.487614	606.077254	1843.417645	652.890980	693.123102	1818.383098	661.481321	495.866954	1841.838598	596.239507	536.764979	1747.755051	673.549771	513.275683	1577.198744	767.604232	247.740507	1786.184430	578.313470	435.181558	
504	2.016000	1734.415650	645.258188	681.127191	1399.741411	648.450315	667.011321	1612.894654	843.414187	938.927293	1642.323971	755.294442	922.796607	1551.970720	791.311800	921.015501	1575.093269	1127.727151	835.942388	1752.793193	1047.593832	786.669612	1868.277311	876.025975	738.068998	1829.946518	855.789423	802.256346	1810.899019	893.871546	688.259602	1842.365503	745.565891	697.011709	1880.381942	695.431709	634.720743	1825.469851	737.523913	606.213152	1843.415737	652.875781	693.224370	1818.527937	661.578536	495.958626	1841.905475	596.294284	536.827207	1747.827530	673.650265	513.344228	1577.178359	767.604470	247.747764	1786.247730	578.361332	435.231507	
505	2.020000	1734.414577	645.255744	681.133330	1399.696708	648.477077	667.032063	1612.868309	843.413651	938.969970	1642.316103	755.298913	922.833145	1551.944852	791.296244	921.034932	1575.030088	1127.730131	835.936308	1752.740383	1047.578812	786.687732	1868.273139	876.017690	738.193154	1829.930067	855.794251	802.370906	1810.902357	893.841982	688.356996	1842.395067	745.570779	697.156429	1880.452752	695.430160	634.886742	1825.582623	737.567663	606.346846	1843.423724	652.859688	693.325520	1818.679094	661.668777	496.053964	1841.984034	596.339583	536.896527	1747.900724	673.753560	513.425112	1577.214479	767.626405	247.782066	1786.329865	578.418434	435.290039	
506	2.024000	1734.408140	645.257592	681.129932	1399.675250	648.476362	667.042792	1612.857342	843.406618	938.989997	1642.299891	755.305767	922.865808	1551.924229	791.301072	921.056271	1574.981689	1127.743363	835.918784	1752.700329	1047.566175	786.704063	1868.265867	876.009464	738.306403	1829.892278	855.799317	802.482784	1810.915828	893.808782	688.464046	1842.427254	745.571494	697.291970	1880.512953	695.427895	635.043025	1825.684190	737.614155	606.480539	1843.418837	652.849734	693.428278	1818.850756	661.765635	496.156573	1842.059970	596.396267	537.002802	1747.982621	673.847735	513.505638	1577.264547	767.655253	247.831345	1786.420941	578.474045	435.353965	
507	2.028000	1734.412670	645.255923	681.142926	1399.705052	648.497403	667.052567	1612.829447	843.416691	939.024866	1642.283440	755.304337	922.887623	1551.896453	791.300237	921.059191	1574.933887	1127.758145	835.913539	1752.662420	1047.538757	786.734521	1868.254066	875.998437	738.422155	1829.842925	855.804980	802.608013	1810.924649	893.791914	688.574433	1842.469335	745.570958	697.444618	1880.585790	695.429981	635.200262	1825.799704	737.655282	606.624365	1843.414545	652.840853	693.533301	1819.017410	661.856890	496.266782	1842.129827	596.439362	537.090957	1748.070717	673.940063	513.594866	1577.170134	767.629206	247.783020	1786.509156	578.535318	435.408115	
508	2.032000	1734.412909	645.266414	681.156695	1399.720430	648.529649	667.061269	1612.798333	843.417108	939.032614	1642.270803	755.317569	922.912836	1551.872969	791.295886	921.074212	1574.879169	1127.770424	835.904479	1752.628565	1047.528028	786.760628	1868.237257	875.986576	738.551140	1829.810739	855.810821	802.729547	1810.912848	893.777609	688.688338	1842.493296	745.553851	697.618186	1880.660295	695.416451	635.377884	1825.917602	737.688422	606.781006	1843.416929	652.834833	693.656862	1819.182992	661.945939	496.375501	1842.218876	596.494973	537.176788	1748.168230	674.035192	513.682842	1577.131033	767.605245	247.775421	1786.623478	578.622282	435.490340	
509	2.036000	1734.429836	645.267725	681.178570	1399.726748	648.529530	667.059183	1612.758398	843.422055	939.028025	1642.254233	755.321860	922.934353	1551.858187	791.302502	921.098828	1574.826241	1127.779484	835.886717	1752.577305	1047.512650	786.792099	1868.211269	875.974417	738.686740	1829.795957	855.816960	802.846909	1810.910463	893.747866	688.800931	1842.528701	745.534301	697.774231	1880.721331	695.399642	635.572493	1826.023102	737.718761	606.942058	1843.405485	652.818501	693.789661	1819.342136	662.040353	496.481240	1842.316270	596.553564	537.272096	1748.268366	674.147606	513.775229	1577.117562	767.614186	247.778982	1786.748171	578.705668	435.578644	
510	2.040000	1734.444737	645.262361	681.195855	1399.760723	648.504853	667.052627	1612.698317	843.437135	939.036906	1642.221689	755.330622	922.959745	1551.823139	791.304827	921.101332	1574.747443	1127.788067	835.892081	1752.535343	1047.504663	786.815107	1868.185639	875.956178	738.828540	1829.774737	855.820715	802.973390	1810.919881	893.724322	688.920557	1842.579603	745.518863	697.932303	1880.792618	695.389152	635.768771	1826.154470	737.739801	607.102871	1843.393326	652.803957	693.949223	1819.508553	662.144005	496.591061	1842.433810	596.626520	537.367821	1748.365879	674.257040	513.871670	1577.100992	767.616928	247.781694	1786.864758	578.786731	435.655236	
511	2.044000	1734.452248	645.255089	681.190789	1399.737358	648.507774	667.056918	1612.679720	843.436718	939.071119	1642.210245	755.341232	922.985196	1551.798820	791.310728	921.109319	1574.694157	1127.796888	835.879207	1752.501011	1047.484636	786.820292	1868.154168	875.940382	738.977671	1829.701424	855.817795	803.095639	1810.906053	893.696070	689.028025	1842.624426	745.510340	698.090971	1880.872726	695.375741	635.974586	1826.288223	737.770617	607.276738	1843.375206	652.787089	694.112122	1819.667101	662.247419	496.716619	1842.557669	596.711040	537.469268	1748.458385	674.370289	513.969600	1577.080488	767.611861	247.780874	1786.974311	578.864753	435.726881	
512	2.048000	1734.452128	645.244360	681.202114	1399.728060	648.515224	667.088211	1612.645149	843.442082	939.100027	1642.188311	755.339324	923.005044	1551.768303	791.310132	921.126425	1574.635267	1127.809167	835.855544	1752.456069	1047.457099	786.818147	1868.126035	875.917792	739.122391	1829.681516	855.827212	803.217828	1810.893178	893.660009	689.140320	1842.670321	745.502830	698.272645	1880.961895	695.351481	636.178255	1826.426506	737.805545	607.457995	1843.351364	652.756214	694.270670	1819.837928	662.371397	496.847868	1842.641115	596.779466	537.584841	1748.557329	674.491405	514.069915	1577.067971	767.596900	247.776642	1787.085414	578.941286	435.805559	
513	2.052000	1734.458208	645.239830	681.218922	1399.749994	648.521662	667.093873	1612.631440	843.449771	939.128280	1642.165899	755.346119	923.027694	1551.745772	791.314423	921.137810	1574.592352	1127.815247	835.835218	1752.424479	1047.445059	786.831677	1868.098974	875.898957	739.274144	1829.643607	855.853558	803.346395	1810.888052	893.614948	689.251602	1842.700601	745.471656	698.485136	1881.041050	695.306420	636.392593	1826.573133	737.829804	607.653141	1843.322635	652.725399	694.448352	1820.003986	662.489772	497.003168	1842.745781	596.857071	537.704110	1748.660207	674.623132	514.176607	1577.045202	767.589450	247.784257	1787.207723	579.033077	435.888827	
514	2.056000	1734.470725	645.230412	681.226492	1399.756670	648.526847	667.117774	1612.621784	843.480170	939.154744	1642.146111	755.360663	923.055232	1551.720619	791.322827	921.149611	1574.544072	1127.816200	835.837722	1752.385497	1047.435522	786.853552	1868.076086	875.880480	739.437938	1829.581738	855.877101	803.477824	1810.867310	893.571496	689.357102	1842.744112	745.444655	698.702276	1881.114006	695.262313	636.631727	1826.711893	737.853289	607.858241	1843.304157	652.702749	694.630563	1820.180535	662.608504	497.166425	1842.869997	596.966445	537.849784	1748.754859	674.754858	514.291406	1577.029586	767.587245	247.786611	1787.333131	579.137862	435.973942	
